<svg xmlns="http://www.w3.org/2000/svg" x="0px" y="0px"
width="48" height="48"
viewBox="0 0 223 223"
style=" fill:#000000;"><g fill="none" fill-rule="nonzero" stroke="none" stroke-width="1" stroke-linecap="butt" stroke-linejoin="miter" stroke-miterlimit="10" stroke-dasharray="" stroke-dashoffset="0" font-family="none" font-weight="none" font-size="none" text-anchor="none" style="mix-blend-mode: normal"><path d="M0,223.99307v-223.99307h223.99307v223.99307z" fill="none"></path><g><g id="surface1"><path d="M74.33333,74.33333l27.72982,-54.18929c4.04696,-8.05762 15.6071,-8.00318 19.56332,0.09074l27.0402,54.09855l55.73185,6.47876c8.94686,1.32479 12.46753,12.32235 5.97062,18.58333l-43.11914,39.97957l13.77417,57.60108c1.48812,8.89241 -7.89429,15.62524 -15.87931,11.39681l-53.68115,-27.14909l-53.6993,26.64095c-8.03947,4.15584 -17.34928,-2.66773 -15.78858,-11.54199l13.77417,-56.94776l-43.19173,-40.95955c-6.44247,-6.31543 -2.81291,-17.25855 6.13395,-18.52889z" fill="#ffd600"></path><path d="M148.66667,125.4375c0,20.52515 -16.64152,37.16667 -37.16667,37.16667c-20.52515,0 -37.16667,-16.64152 -37.16667,-37.16667c0,-20.52515 16.64152,-37.16667 37.16667,-37.16667c20.52515,0 37.16667,16.64152 37.16667,37.16667z" fill="#ffffff"></path><path d="M148.66667,125.4375h-74.33333c0,-20.52515 16.64152,-37.16667 37.16667,-37.16667c20.52515,0 37.16667,16.64152 37.16667,37.16667z" fill="#ff3d00"></path><path d="M74.33333,125.4375c0,1.57886 0.12704,3.12142 0.32666,4.64583h73.68001c0.19962,-1.52441 0.32666,-3.06697 0.32666,-4.64583c0,-1.57886 -0.12704,-3.12142 -0.32666,-4.64583h-73.68001c-0.19963,1.52441 -0.32666,3.06697 -0.32666,4.64583z" fill="#455a64"></path><path d="M130.08333,125.4375c0,10.27165 -8.31168,18.58333 -18.58333,18.58333c-10.27164,0 -18.58333,-8.31168 -18.58333,-18.58333c0,-10.27164 8.31169,-18.58333 18.58333,-18.58333c10.27165,0 18.58333,8.31169 18.58333,18.58333z" fill="#455a64"></path><path d="M120.79167,125.4375c0,5.13582 -4.15584,9.29167 -9.29167,9.29167c-5.13582,0 -9.29167,-4.15584 -9.29167,-9.29167c0,-5.13582 4.15584,-9.29167 9.29167,-9.29167c5.13582,0 9.29167,4.15584 9.29167,9.29167z" fill="#ffffff"></path></g></g><g><g id="Слой_1"><g><path d="M223,176.54167c0,25.55208 -20.90625,46.45833 -46.45833,46.45833c-25.55208,0 -46.45833,-20.90625 -46.45833,-46.45833c0,-25.55208 20.90625,-46.45833 46.45833,-46.45833c25.55208,0 46.45833,20.90625 46.45833,46.45833" fill="#ff3d00"></path><path d="M201.16458,161.675l-9.75625,-9.75625l-14.86667,14.86667l-14.86667,-14.86667l-9.75625,9.75625l14.86667,14.86667l-14.86667,14.86667l9.75625,9.75625l14.86667,-14.86667l14.86667,14.86667l9.75625,-9.75625l-14.86667,-14.86667z" fill="#ffffff"></path></g></g></g></g></svg>