<?xml version="1.0" encoding="iso-8859-1"?>
<!-- Generator: Adobe Illustrator 20.0.0, SVG Export Plug-In . SVG Version: 6.00 Build 0)  -->
<svg version="1.1" id="Layer_1" xmlns="http://www.w3.org/2000/svg" xmlns:xlink="http://www.w3.org/1999/xlink" x="0px" y="0px"
	 viewBox="0 0 101.066 101.066" style="enable-background:new 0 0 101.066 101.066;" xml:space="preserve">
<path style="fill:#DA3F51;" d="M99.867,50.531c0,27.246-22.086,49.336-49.332,49.336S1.199,77.777,1.199,50.531
	S23.289,1.199,50.535,1.199S99.867,23.285,99.867,50.531L99.867,50.531z M99.867,50.531"/>
<path style="fill:#FF485E;" d="M99.867,50.531c0,20.871-22.086,37.789-49.332,37.789S1.199,71.402,1.199,50.531
	c0-20.867,22.09-37.785,49.336-37.785S99.867,29.664,99.867,50.531L99.867,50.531z M99.867,50.531"/>
<path style="fill:#D8E5EA;" d="M1.199,50.531c0,27.25,22.09,49.336,49.336,49.336s49.332-22.086,49.332-49.336H1.199z M1.199,50.531
	"/>
<path style="fill:#FFFFFF;" d="M50.535,88.32c27.246,0,49.332-16.922,49.332-37.789H1.199C1.199,71.398,23.289,88.32,50.535,88.32
	L50.535,88.32z M50.535,88.32"/>
<path style="fill:#3E354A;" d="M1.199,50.531c0,0.4,0.023,0.795,0.039,1.192h98.589c0.016-0.397,0.039-0.792,0.039-1.192
	c0-0.399-0.023-0.793-0.039-1.188H1.238C1.222,49.738,1.199,50.132,1.199,50.531z"/>
<path style="fill:#A7BBC1;" d="M63.945,55.094c0,7.406-6.004,13.41-13.41,13.41c-7.41,0-13.414-6.004-13.414-13.41
	c0-7.407,6.004-13.411,13.414-13.411C57.941,41.683,63.945,47.687,63.945,55.094L63.945,55.094z M63.945,55.094"/>
<path style="fill:#FFFFFF;" d="M63.945,50.535c0,7.406-6.004,13.41-13.41,13.41c-7.41,0-13.414-6.004-13.414-13.41
	c0-7.41,6.004-13.414,13.414-13.414C57.941,37.121,63.945,43.125,63.945,50.535L63.945,50.535z M63.945,50.535"/>
<path style="fill:#D8E5EA;" d="M41.051,60.015c-5.239-5.238-5.239-13.726,0-18.964c5.238-5.239,13.726-5.239,18.965,0"/>
<path style="fill:#3E354A;" d="M50.535,65.144c-3.902,0-7.574-1.519-10.332-4.277c-5.699-5.699-5.699-14.969,0-20.664
	c5.695-5.699,14.965-5.699,20.66,0c2.762,2.758,4.282,6.43,4.282,10.332c0,3.902-1.52,7.57-4.282,10.332
	C58.105,63.625,54.438,65.144,50.535,65.144L50.535,65.144z M50.535,38.328c-3.129,0-6.254,1.191-8.637,3.57
	c-4.757,4.762-4.757,12.508,0,17.27c2.309,2.308,5.375,3.578,8.637,3.578s6.328-1.27,8.633-3.578
	c2.305-2.305,3.578-5.371,3.578-8.633c0-3.262-1.273-6.328-3.578-8.637C56.789,39.519,53.66,38.328,50.535,38.328L50.535,38.328z
	 M50.535,38.328"/>
<path style="fill:#FFFFFF;" d="M55.098,55.097c-2.52,2.516-6.606,2.516-9.125,0c-2.52-2.523-2.516-6.605,0-9.125
	c2.519-2.519,6.605-2.515,9.125,0C57.613,48.492,57.613,52.574,55.098,55.097L55.098,55.097z M55.098,55.097"/>
<path style="fill:#D8E5EA;" d="M45.973,45.972c2.519-2.519,6.605-2.515,9.125,0c2.515,2.52,2.515,6.602,0,9.125"/>
<path style="fill:#3E354A;" d="M50.535,58.179c-1.961,0-3.918-0.746-5.41-2.234c-2.984-2.984-2.984-7.84,0-10.82
	c1.445-1.446,3.367-2.242,5.41-2.242s3.965,0.796,5.41,2.242c2.981,2.98,2.981,7.836,0,10.82
	C54.453,57.433,52.492,58.179,50.535,58.179L50.535,58.179z M50.535,45.281c-1.402,0-2.723,0.547-3.715,1.539
	c-2.047,2.047-2.047,5.379,0,7.426s5.379,2.047,7.426,0c2.047-2.047,2.047-5.379,0-7.426C53.258,45.832,51.938,45.285,50.535,45.281
	L50.535,45.281z M50.535,45.281"/>
</svg>
